@startuml RD_Sistem
skinparam class {
  BackgroundColor white
  ArrowColor black
  DefaultTextAlignment center
}
hide circle

' Zaslonske maske

class "ZM-NadzornaPlosca" as ZM_NadzornaPlosca <<boundary>> <<HA>>{
  -okenceStanjeSistema
  +gumbIzbiraStanjaSistema()
}

' Kontrolerji

class "K-NadzornaPlosca" as K_NadzornaPlosca <<controller>> <<HA>>{
  -stanjeSistema
  +spremeniStanjeSistema()
}

' Razredi

class "R-HomeAssistant" as R_HomeAssistant <<entity>> <<HA>>{
  -stanjeSistema
  +spremeniStanjeSistema()
  +vrniStanjeSistema()
}

class "R-StanjeSistema" as R_StanjeSistema <<entity>> <<HA>>{
  -stanje {izklopljen, uklopljen, doma}
}

' Povezave

' NadzornaPlosca
ZM_NadzornaPlosca <--> K_NadzornaPlosca
K_NadzornaPlosca <--> R_HomeAssistant

' HomeAssistant
R_HomeAssistant --> R_StanjeSistema

' Boundary classes (GREEN background)
skinparam class {
  BackgroundColor<<boundary>> #D5F5E3
}

' Controller classes (RED background)
skinparam class {
  BackgroundColor<<controller>> #FADBD8
}

skinparam class {
  BorderColor<<HA>> #007ACC
}

legend right
  |= Barva |= Opis |
  | ZELENA | Ozadje razredov tipa boundary (uporabniški vmesnik) |
  | RDEČA | Ozadje razredov tipa controller (logika/krmilniki) |
  | BELA | Ozadje razredov tipa entity (podatkovni modeli) |
  | MODRA | Rob razredov, ki so že implementirani ali delno implementirani v Home Assistant |
endlegend
@enduml